<svg xmlns="http://www.w3.org/2000/svg" viewBox="0 0 205.72 205.23"><defs><style>.cls-1{fill:#323232;fill-rule:evenodd;}.cls-2{fill:#fff;}</style></defs><g id="Capa_2" data-name="Capa 2"><g id="_3" data-name="3"><path class="cls-1" d="M45.27,0H160.45a45.4,45.4,0,0,1,45.27,45.16V160a45.42,45.42,0,0,1-45.27,45.26H45.27A45.42,45.42,0,0,1,0,160V45.16A45.4,45.4,0,0,1,45.27,0Z"/><path class="cls-2" d="M133,172.46H72.7A39.85,39.85,0,0,1,32.85,132.7V72.53A39.85,39.85,0,0,1,72.7,32.77H133a39.85,39.85,0,0,1,39.86,39.76V132.7A39.85,39.85,0,0,1,133,172.46ZM72.7,44.74A27.85,27.85,0,0,0,44.85,72.53V132.7A27.85,27.85,0,0,0,72.7,160.49H133a27.85,27.85,0,0,0,27.85-27.79V72.53A27.85,27.85,0,0,0,133,44.74Z"/><path class="cls-2" d="M102.86,138.38a35.77,35.77,0,1,1,35.85-35.77A35.85,35.85,0,0,1,102.86,138.38Zm0-59.56a23.8,23.8,0,1,0,23.85,23.79A23.85,23.85,0,0,0,102.86,78.82Z"/><path class="cls-2" d="M148.87,64.8a8.62,8.62,0,1,1-8.62-8.6A8.61,8.61,0,0,1,148.87,64.8Z"/></g></g></svg>